<?xml version="1.0" encoding="utf-8"?>
<!-- Generator: Adobe Illustrator 16.0.0, SVG Export Plug-In . SVG Version: 6.00 Build 0)  -->
<!DOCTYPE svg PUBLIC "-//W3C//DTD SVG 1.1//EN" "http://www.w3.org/Graphics/SVG/1.1/DTD/svg11.dtd">
<svg version="1.1" id="Layer_1" xmlns="http://www.w3.org/2000/svg" xmlns:xlink="http://www.w3.org/1999/xlink" x="0px" y="0px"
	 width="612px" height="792px" viewBox="0 0 612 792" enable-background="new 0 0 612 792" xml:space="preserve">
<title>Group</title>
<desc>Created with Sketch.</desc>
<g id="Page-1">
	<g id="Landing" transform="translate(-167.000000, -19.000000)">
		<g id="banner-2.0">
			<g id="Group" transform="translate(168.000000, 19.000000)">
				<path id="docker" display="none" fill="#FFFFFF" d="M768.749,241.002h3.236c9.699,1.655,12.936,6.614,12.936,13.23v110.823
					v18.191c0,14.888-6.467,31.426-17.784,47.965c-17.79,19.85-37.192,28.121-58.209,28.121h-4.847
					c-21.021,0-40.423-9.927-59.826-29.771c-11.317-16.544-16.167-33.081-16.167-49.623c0-26.46,11.316-47.965,33.951-66.16
					c14.553-9.925,29.106-14.886,45.273-14.886c19.399,0,35.567,4.961,48.502,16.541v-51.275v-9.925
					C759.051,245.966,763.9,241.002,768.749,241.002z M658.805,378.288v3.303c0,21.504,11.316,36.388,32.337,46.314
					c4.85,1.655,11.315,3.306,14.547,3.306h3.236c19.402,0,33.95-11.577,45.272-33.077c1.613-6.616,3.231-11.582,3.231-14.888
					v-3.311c0-21.497-11.317-36.385-32.338-46.31c-6.468-1.653-11.316-3.308-16.166-3.308h-3.236
					c-19.4,0-33.948,9.925-45.266,31.427C658.805,368.361,658.805,373.327,658.805,378.288z M877.08,302.199
					c19.404,0,38.802,8.269,54.973,23.157c16.167,16.539,22.635,34.738,22.635,56.237c0,29.774-12.937,52.929-40.418,69.47
					c-11.318,6.616-24.253,9.928-35.575,9.928h-4.85c-21.017,0-40.418-9.928-58.201-29.776
					c-11.317-16.539-16.172-33.077-16.172-49.618c0-26.466,11.317-47.967,33.956-64.508
					C847.973,307.16,862.527,302.199,877.08,302.199z M830.191,379.936v3.311c0,18.193,8.083,33.081,25.869,43.003
					c6.467,3.312,12.935,4.962,19.402,4.962h3.231c17.79,0,32.337-9.922,42.042-29.771c1.612-6.616,3.232-11.577,3.232-18.193
					v-3.311c0-14.881-6.469-28.113-21.018-38.041c-8.085-4.96-17.789-8.269-27.488-8.269c-21.021,0-35.569,11.578-45.273,33.084
					C830.191,371.671,830.191,374.977,830.191,379.936z M1040.38,300.547c19.402,0,38.806,8.27,54.974,23.154
					c1.617,3.309,3.234,6.617,3.234,8.272v1.653c-1.617,9.925-6.467,14.886-14.553,14.886l0,0c-3.231,0-9.699-3.308-19.402-11.578
					c-6.469-3.309-14.549-4.961-21.017-4.961h-3.236c-19.403,0-33.951,9.922-43.655,31.427c-1.612,6.616-3.231,13.232-3.231,18.191
					c0,19.849,9.699,34.736,30.72,44.658c6.469,1.656,12.936,3.312,19.403,3.312c11.316,0,22.635-4.967,33.951-14.889l6.468-1.655
					h1.619c8.084,0,12.932,4.962,14.55,14.889v1.655c0,9.922-12.933,19.845-37.186,29.771c-8.086,1.655-14.554,1.655-17.784,1.655
					h-4.854c-21.016,0-40.419-9.927-58.203-29.776c-11.318-16.539-16.172-33.077-16.172-49.62c0-26.462,11.322-47.965,33.956-64.506
					C1011.277,305.508,1025.831,300.547,1040.38,300.547z M1169.726,379.936l-17.785,11.582v54.581
					c0,8.272-4.848,13.233-14.547,14.889h-1.619c-8.086,0-12.935-4.967-14.553-13.233V255.888
					c1.618-9.922,6.467-14.886,12.936-14.886h3.236c9.699,1.655,14.547,6.614,14.547,13.23v100.896
					c46.892-31.428,74.377-49.621,84.08-56.237h3.231c8.086,0,12.935,4.961,14.553,16.541c0,6.617-6.467,13.233-19.403,19.849
					c-21.021,14.886-33.947,24.813-40.415,28.119l58.2,76.085l1.618,4.962v1.655c-1.618,9.922-6.467,14.889-14.553,14.889l0,0
					c-6.468,0-12.935-6.617-22.635-19.85L1169.726,379.936z M1342.737,302.199c30.717,0,53.351,14.886,69.521,43.004
					c6.467,11.579,8.086,23.157,8.086,36.389v3.312c-1.619,9.919-6.467,14.88-14.554,14.88h-108.326
					c3.231,9.928,11.317,18.194,22.635,24.81c8.085,3.312,14.553,4.967,21.021,4.967c8.085,0,16.165-3.312,27.48-8.271h4.854
					c9.699,1.655,12.936,6.616,12.936,14.883v1.655c0,11.578-14.553,19.849-42.04,23.16h-3.229
					c-27.49,0-50.123-13.233-67.911-39.698c-6.469-13.232-9.705-26.466-9.705-39.698c0-29.769,12.937-52.926,40.425-69.467
					C1318.477,305.508,1331.415,302.199,1342.737,302.199z M1297.461,370.016h93.779c0-3.306-3.236-11.577-11.317-21.504
					c-11.322-9.922-21.019-14.886-32.337-14.886h-6.466c-16.173,0-29.108,8.269-38.807,23.157
					C1299.08,363.4,1297.461,366.71,1297.461,370.016z M1462.381,300.547c9.705,1.653,14.553,6.614,14.553,13.231v1.654
					c11.316-11.579,27.481-16.541,46.885-16.541c9.703,0,21.021,3.308,33.955,8.269c4.852,4.963,6.469,8.271,6.469,13.233v1.655
					c-1.617,9.924-6.469,14.886-14.553,14.886h-3.232c-9.703-3.309-17.789-4.961-21.021-4.961h-3.231
					c-19.402,0-33.954,9.922-42.039,31.427c-1.613,4.961-3.232,11.577-3.232,18.191v64.508c0,8.272-4.848,13.233-14.553,14.889
					h-1.618c-8.08,0-12.931-4.967-14.548-14.889V317.085C1447.83,305.508,1452.679,300.547,1462.381,300.547z"/>
				<path id="Shape" fill="#FFFFFF" stroke="#FFFFFF" stroke-width="0.7" d="M514.904,298.891
					c-1.619-24.811-14.554-46.313-37.188-64.505l-8.085-6.614l-6.468,8.27c-11.317,18.191-16.167,41.348-14.549,61.197
					c1.618,13.23,6.468,28.118,14.549,38.042c-6.462,4.961-27.484,14.886-54.97,14.886H0.745
					c-8.083,44.656,4.85,213.369,194.02,213.369c140.666,0,255.466-64.507,308.819-200.137c17.786,0,63.059,3.311,85.693-41.351
					l6.467-11.58l-8.086-6.616C573.113,295.583,539.158,292.275,514.904,298.891z"/>
				<rect id="Rectangle-3" x="262.674" y="133.487" fill="#FFFFFF" width="63.057" height="59.545"/>
				<rect id="Rectangle-3_1_" x="262.674" y="204.615" fill="#FFFFFF" width="63.057" height="59.542"/>
				<rect id="Rectangle-3_2_" x="188.299" y="204.615" fill="#FFFFFF" width="63.058" height="59.542"/>
				<rect id="Rectangle-3_3_" x="113.923" y="204.615" fill="#FFFFFF" width="63.056" height="59.542"/>
				<rect id="Rectangle-3_4_" x="39.549" y="274.081" fill="#FFFFFF" width="63.058" height="59.545"/>
				<rect id="Rectangle-3_5_" x="113.923" y="274.081" fill="#FFFFFF" width="63.056" height="59.545"/>
				<rect id="Rectangle-3_6_" x="188.299" y="274.081" fill="#FFFFFF" width="63.058" height="59.545"/>
				<rect id="Rectangle-3_7_" x="262.674" y="274.081" fill="#FFFFFF" width="63.057" height="59.545"/>
				<rect id="Rectangle-3_8_" x="337.049" y="274.081" fill="#FFFFFF" width="63.059" height="59.545"/>
			</g>
		</g>
	</g>
</g>
</svg>
