<?xml version="1.0" encoding="utf-8"?>
<!-- Generator: Adobe Illustrator 16.0.0, SVG Export Plug-In . SVG Version: 6.00 Build 0)  -->
<!DOCTYPE svg PUBLIC "-//W3C//DTD SVG 1.1//EN" "http://www.w3.org/Graphics/SVG/1.1/DTD/svg11.dtd">
<svg version="1.1" id="Calque_1" xmlns="http://www.w3.org/2000/svg" xmlns:xlink="http://www.w3.org/1999/xlink" x="0px" y="0px"
	 width="48px" height="48px" viewBox="0 0 48 48" enable-background="new 0 0 48 48" xml:space="preserve">
<title>compose_48</title>
<desc>Created with Sketch.</desc>
<g id="Page-1">
	<g id="compose_48">
		<g id="Capa_1">
			<g>
				<path id="Shape" fill="#FFFFFF" d="M6,42h8v-8H6V42z M7,35h6v6H7V35z M28,6h-8v8h8V6z M27,13h-6V7h6V13z M20,42h8v-8h-8V42z
					 M21,35h6v6h-6V35z M34,6v8h8V6H34z M41,13h-6V7h6V13z"/>
				<path id="Shape_1_" fill="#FFFFFF" d="M34,23h-6v-3h-8v3h-6v-3h-3v-6h3V6H6v8h3v6H6v8h8v-3h6v3h8v-3h6v3h3v6h-3v8h8v-8h-3v-6h3
					v-8h-8V23z M7,13V7h6v6H7z M13,27H7v-6h6V27z M27,27h-6v-6h6V27z M41,35v6h-6v-6H41z M35,21h6v6h-6V21z"/>
				<polygon id="Rectangle-30" fill="none" points="0,0 48,0 48,48 0,48 				"/>
			</g>
		</g>
	</g>
</g>
</svg>
